<?xml version="1.0" encoding="UTF-8" standalone="no"?>
<svg
   xmlns:dc="http://purl.org/dc/elements/1.1/"
   xmlns:cc="http://creativecommons.org/ns#"
   xmlns:rdf="http://www.w3.org/1999/02/22-rdf-syntax-ns#"
   xmlns:svg="http://www.w3.org/2000/svg"
   xmlns="http://www.w3.org/2000/svg"
   xmlns:xlink="http://www.w3.org/1999/xlink"
   xmlns:sodipodi="http://sodipodi.sourceforge.net/DTD/sodipodi-0.dtd"
   xmlns:inkscape="http://www.inkscape.org/namespaces/inkscape"
   version="1.1"
   id="Ebene_1"
   x="0px"
   y="0px"
   viewBox="0 0 567.001 111.458"
   style="enable-background:new 0 0 567.001 111.458;"
   xml:space="preserve"
   sodipodi:docname="signalk4.svg"
   inkscape:version="1.0 (6e3e5246a0, 2020-05-07)"><metadata
   id="metadata204"><rdf:RDF><cc:Work
       rdf:about=""><dc:format>image/svg+xml</dc:format><dc:type
         rdf:resource="http://purl.org/dc/dcmitype/StillImage" /><dc:title></dc:title></cc:Work></rdf:RDF></metadata><defs
   id="defs202">
	
	
</defs><sodipodi:namedview
   inkscape:document-rotation="0"
   pagecolor="#ffffff"
   bordercolor="#666666"
   borderopacity="1"
   objecttolerance="10"
   gridtolerance="10"
   guidetolerance="10"
   inkscape:pageopacity="0"
   inkscape:pageshadow="2"
   inkscape:window-width="1848"
   inkscape:window-height="1016"
   id="namedview200"
   showgrid="false"
   inkscape:snap-global="false"
   inkscape:zoom="1.0996453"
   inkscape:cx="266.40641"
   inkscape:cy="21.038896"
   inkscape:window-x="72"
   inkscape:window-y="27"
   inkscape:window-maximized="1"
   inkscape:current-layer="Ebene_1" />
<style
   type="text/css"
   id="style126">
	.st0{fill:#003399;}
	.st1{clip-path:url(#SVGID_2_);}
	.st2{clip-path:url(#SVGID_4_);fill:#003399;}
	.st3{clip-path:url(#SVGID_4_);fill:#FFCC00;}
</style>
<g
   transform="matrix(0.78541528,0,0,0.78541528,26.236745,-7.7990714)"
   id="Text">
		<path
   id="path128"
   d="m 207.906,20.226 c 4.185,0 8.027,0.605 11.526,1.814 3.498,1.211 6.524,2.764 9.074,4.66 2.551,1.897 4.545,3.99 5.984,6.278 1.438,2.29 2.19,4.48 2.256,6.573 0,0.589 -0.213,1.096 -0.638,1.521 -0.426,0.426 -0.899,0.638 -1.422,0.638 h -12.851 c -0.917,0 -1.652,-0.13 -2.208,-0.392 -0.556,-0.261 -1.128,-0.653 -1.717,-1.177 -0.196,-0.196 -0.507,-0.523 -0.932,-0.981 -0.426,-0.457 -1.03,-0.932 -1.815,-1.423 -0.785,-0.49 -1.766,-0.915 -2.943,-1.275 -1.177,-0.359 -2.617,-0.54 -4.316,-0.54 -1.243,0 -2.437,0.083 -3.581,0.245 -1.145,0.164 -2.158,0.426 -3.041,0.785 -0.883,0.36 -1.604,0.868 -2.158,1.521 -0.557,0.655 -0.834,1.472 -0.834,2.453 0,0.981 0.31,1.799 0.932,2.453 0.621,0.654 1.667,1.26 3.139,1.814 1.471,0.557 3.417,1.096 5.837,1.619 2.418,0.524 5.427,1.145 9.025,1.864 3.596,0.721 6.735,1.636 9.417,2.747 2.681,1.113 4.92,2.501 6.72,4.169 1.798,1.668 3.139,3.629 4.022,5.886 0.883,2.256 1.324,4.922 1.324,7.995 0,3.335 -0.752,6.312 -2.256,8.927 -1.505,2.616 -3.614,4.855 -6.328,6.72 -2.714,1.864 -5.919,3.286 -9.614,4.268 -3.695,0.98 -7.734,1.472 -12.115,1.472 -4.448,0 -8.502,-0.589 -12.165,-1.767 -3.663,-1.177 -6.818,-2.729 -9.466,-4.659 -2.649,-1.929 -4.726,-4.104 -6.229,-6.523 -1.505,-2.419 -2.29,-4.871 -2.354,-7.357 0,-0.589 0.212,-1.095 0.638,-1.521 0.425,-0.425 0.898,-0.638 1.422,-0.638 h 12.851 c 0.915,0 1.634,0.115 2.158,0.343 0.523,0.23 1.045,0.573 1.57,1.03 0.26,0.263 0.653,0.687 1.177,1.275 0.523,0.589 1.227,1.194 2.109,1.814 0.883,0.623 1.994,1.162 3.335,1.619 1.339,0.458 2.992,0.687 4.954,0.687 3.465,0 6.359,-0.375 8.682,-1.128 2.32,-0.751 3.482,-2.109 3.482,-4.071 0,-0.98 -0.426,-1.798 -1.275,-2.452 -0.851,-0.653 -2.126,-1.259 -3.826,-1.815 -1.702,-0.555 -3.875,-1.094 -6.523,-1.618 -2.649,-0.522 -5.773,-1.178 -9.369,-1.962 -6.737,-1.438 -11.658,-3.842 -14.764,-7.21 -3.107,-3.368 -4.66,-7.863 -4.66,-13.489 0,-2.811 0.637,-5.493 1.913,-8.044 1.275,-2.55 3.123,-4.807 5.542,-6.769 2.419,-1.962 5.347,-3.515 8.78,-4.66 3.437,-1.145 7.279,-1.719 11.531,-1.719 z"
   class="st0" />
		<path
   id="path130"
   d="m 264.999,30.821 c 0,0.72 -0.262,1.341 -0.785,1.864 -0.524,0.524 -1.145,0.785 -1.864,0.785 h -12.36 c -0.72,0 -1.341,-0.261 -1.864,-0.785 -0.524,-0.523 -0.785,-1.144 -0.785,-1.864 v -9.908 c 0,-0.719 0.26,-1.34 0.785,-1.864 0.522,-0.523 1.144,-0.785 1.864,-0.785 h 12.36 c 0.719,0 1.34,0.262 1.864,0.785 0.523,0.524 0.785,1.145 0.785,1.864 z m 0,56.407 c 0,0.72 -0.262,1.341 -0.785,1.863 -0.524,0.524 -1.145,0.785 -1.864,0.785 h -12.36 c -0.72,0 -1.341,-0.261 -1.864,-0.785 -0.524,-0.522 -0.785,-1.144 -0.785,-1.863 V 41.513 c 0,-0.719 0.26,-1.339 0.785,-1.864 0.522,-0.522 1.144,-0.785 1.864,-0.785 h 12.36 c 0.719,0 1.34,0.262 1.864,0.785 0.523,0.524 0.785,1.145 0.785,1.864 z"
   class="st0" />
		<path
   id="path132"
   d="m 300.607,96.743 c 2.485,0 4.675,-0.573 6.573,-1.717 1.896,-1.146 2.845,-2.862 2.845,-5.15 v -6.867 c -0.588,0.721 -1.226,1.423 -1.913,2.109 -0.687,0.687 -1.538,1.309 -2.551,1.864 -1.015,0.556 -2.256,1.015 -3.728,1.373 -1.472,0.36 -3.287,0.539 -5.445,0.539 -2.943,0 -5.723,-0.441 -8.338,-1.324 -2.616,-0.883 -4.905,-2.239 -6.867,-4.07 -1.962,-1.831 -3.548,-4.12 -4.758,-6.867 -1.211,-2.747 -1.881,-5.984 -2.011,-9.712 -0.066,-0.981 -0.098,-2.142 -0.098,-3.482 0,-1.34 0.032,-2.502 0.098,-3.482 0.13,-3.728 0.8,-6.98 2.011,-9.761 1.209,-2.779 2.796,-5.068 4.758,-6.867 1.962,-1.798 4.25,-3.154 6.867,-4.071 2.615,-0.915 5.396,-1.373 8.338,-1.373 2.158,0 4.022,0.196 5.592,0.588 1.57,0.393 2.909,0.883 4.022,1.472 1.111,0.588 2.026,1.226 2.747,1.913 0.719,0.687 1.307,1.325 1.766,1.913 v -2.256 c 0,-0.719 0.261,-1.339 0.785,-1.864 0.523,-0.522 1.144,-0.785 1.864,-0.785 h 11.379 c 0.719,0 1.34,0.262 1.864,0.785 0.522,0.524 0.785,1.145 0.785,1.864 v 47.774 c 0,3.662 -0.671,6.883 -2.011,9.663 -1.341,2.779 -3.188,5.101 -5.542,6.965 -2.354,1.864 -5.167,3.253 -8.437,4.169 -3.271,0.915 -6.867,1.374 -10.791,1.374 -5.102,0 -9.271,-0.638 -12.508,-1.913 -3.237,-1.275 -5.772,-2.813 -7.603,-4.61 -1.832,-1.8 -3.107,-3.679 -3.826,-5.642 -0.72,-1.962 -1.113,-3.663 -1.177,-5.101 -0.066,-0.721 0.179,-1.341 0.735,-1.864 0.555,-0.523 1.193,-0.784 1.913,-0.784 H 290.7 c 1.374,0 2.386,0.652 3.041,1.962 0.457,0.849 1.16,1.602 2.109,2.256 0.947,0.651 2.533,0.979 4.757,0.979 z m -8.632,-35.806 c -0.132,0.981 -0.196,1.783 -0.196,2.403 0,0.623 0.064,1.423 0.196,2.404 0.196,2.29 0.996,4.186 2.403,5.689 1.405,1.505 3.547,2.256 6.425,2.256 2.681,0 4.724,-0.735 6.131,-2.207 1.405,-1.472 2.271,-3.154 2.6,-5.052 0.326,-2.026 0.326,-4.087 0,-6.181 -0.262,-1.896 -1.113,-3.563 -2.551,-5.003 -1.439,-1.438 -3.499,-2.158 -6.18,-2.158 -2.813,0 -4.938,0.736 -6.376,2.208 -1.439,1.472 -2.256,3.353 -2.452,5.641 z"
   class="st0" />
		<path
   id="path134"
   d="m 390.857,87.228 c 0,0.72 -0.262,1.341 -0.785,1.863 -0.524,0.524 -1.145,0.785 -1.864,0.785 h -12.36 c -0.721,0 -1.341,-0.261 -1.864,-0.785 -0.524,-0.522 -0.785,-1.144 -0.785,-1.863 v -24.82 c 0,-2.811 -0.687,-5.067 -2.06,-6.769 -1.373,-1.7 -3.531,-2.551 -6.474,-2.551 -2.943,0 -5.086,0.851 -6.426,2.551 -1.341,1.701 -2.011,3.958 -2.011,6.769 v 24.819 c 0,0.72 -0.262,1.341 -0.785,1.863 -0.524,0.524 -1.145,0.785 -1.864,0.785 h -12.36 c -0.72,0 -1.341,-0.261 -1.864,-0.785 -0.524,-0.522 -0.785,-1.144 -0.785,-1.863 V 41.513 c 0,-0.719 0.26,-1.339 0.785,-1.864 0.522,-0.522 1.144,-0.785 1.864,-0.785 h 11.87 c 0.719,0 1.339,0.262 1.864,0.785 0.522,0.524 0.785,1.145 0.785,1.864 v 2.256 c 0.523,-0.653 1.177,-1.339 1.962,-2.06 0.785,-0.719 1.732,-1.356 2.845,-1.913 1.111,-0.555 2.403,-1.013 3.875,-1.373 1.472,-0.359 3.188,-0.54 5.15,-0.54 3.139,0 6.016,0.441 8.633,1.324 2.615,0.883 4.855,2.241 6.72,4.071 1.864,1.832 3.318,4.154 4.365,6.965 1.045,2.813 1.569,6.148 1.569,10.006 z"
   class="st0" />
		<path
   id="path136"
   d="m 398.411,75.358 c 0,-4.316 1.651,-7.88 4.954,-10.692 3.301,-2.812 8.682,-4.872 16.137,-6.181 l 11.477,-1.962 c 0,-1.57 -0.426,-2.86 -1.275,-3.875 -0.85,-1.013 -2.322,-1.521 -4.414,-1.521 -1.504,0 -2.664,0.213 -3.482,0.638 -0.818,0.426 -1.422,0.802 -1.814,1.128 -0.588,0.524 -1.145,0.851 -1.668,0.981 -0.523,0.132 -1.145,0.196 -1.863,0.196 h -12.459 c -0.654,0 -1.194,-0.196 -1.619,-0.588 -0.426,-0.393 -0.605,-0.915 -0.54,-1.57 0.13,-1.503 0.785,-3.073 1.962,-4.708 1.177,-1.634 2.795,-3.139 4.855,-4.513 2.06,-1.373 4.513,-2.517 7.358,-3.434 2.844,-0.915 5.936,-1.373 9.27,-1.373 3.988,0 7.455,0.49 10.398,1.471 2.943,0.981 5.379,2.339 7.309,4.071 1.928,1.733 3.352,3.793 4.268,6.18 0.916,2.388 1.373,5.02 1.373,7.896 v 29.725 c 0,0.72 -0.262,1.341 -0.785,1.863 -0.523,0.524 -1.145,0.785 -1.863,0.785 h -12.359 c -0.721,0 -1.342,-0.261 -1.865,-0.785 -0.523,-0.522 -0.785,-1.144 -0.785,-1.863 V 84.48 c -1.568,1.962 -3.516,3.517 -5.836,4.66 -2.322,1.144 -5.381,1.717 -9.172,1.717 -2.813,0 -5.314,-0.393 -7.504,-1.178 -2.192,-0.785 -4.022,-1.864 -5.494,-3.237 -1.472,-1.373 -2.6,-3.007 -3.384,-4.905 -0.788,-1.895 -1.18,-3.956 -1.18,-6.179 z m 22.366,2.255 c 1.438,0 2.779,-0.245 4.021,-0.735 1.242,-0.49 2.32,-1.16 3.238,-2.011 0.914,-0.85 1.633,-1.848 2.158,-2.992 0.521,-1.144 0.783,-2.37 0.783,-3.679 l -9.023,1.373 c -1.768,0.328 -3.189,0.883 -4.268,1.668 -1.08,0.785 -1.619,1.8 -1.619,3.041 0,1.243 0.408,2.109 1.227,2.6 0.817,0.49 1.977,0.735 3.483,0.735 z"
   class="st0" />
		<path
   id="path138"
   d="m 477.183,87.228 c 0,0.72 -0.263,1.341 -0.785,1.863 -0.524,0.524 -1.145,0.785 -1.863,0.785 h -12.36 c -0.721,0 -1.342,-0.261 -1.864,-0.785 -0.524,-0.522 -0.785,-1.144 -0.785,-1.863 V 22.875 c 0,-0.719 0.261,-1.339 0.785,-1.864 0.522,-0.522 1.144,-0.785 1.864,-0.785 h 12.36 c 0.719,0 1.339,0.262 1.863,0.785 0.522,0.524 0.785,1.145 0.785,1.864 z"
   class="st0" />
		<path
   id="path140"
   d="m 566.706,86.639 c 0.196,0.262 0.295,0.622 0.295,1.079 0,0.589 -0.213,1.096 -0.638,1.521 -0.427,0.426 -0.933,0.638 -1.521,0.638 h -15.598 c -0.917,0 -1.668,-0.196 -2.257,-0.589 -0.588,-0.393 -1.177,-0.947 -1.766,-1.667 l -18.54,-23.348 v 22.955 c 0,0.72 -0.263,1.341 -0.785,1.863 -0.524,0.524 -1.146,0.785 -1.864,0.785 h -12.851 c -0.721,0 -1.341,-0.261 -1.864,-0.785 -0.523,-0.522 -0.784,-1.144 -0.784,-1.863 V 23.856 c 0,-0.719 0.261,-1.339 0.784,-1.864 0.523,-0.522 1.144,-0.785 1.864,-0.785 h 12.851 c 0.719,0 1.34,0.262 1.864,0.785 0.522,0.524 0.785,1.145 0.785,1.864 v 20.699 l 17.265,-21.189 c 0.327,-0.393 0.751,-0.849 1.275,-1.374 0.522,-0.522 1.405,-0.785 2.648,-0.785 h 15.304 c 0.589,0 1.095,0.213 1.521,0.638 0.425,0.426 0.638,0.932 0.638,1.521 0,0.458 -0.098,0.818 -0.294,1.079 l -24.23,29.625 z"
   class="st0" />
	</g><g
   transform="matrix(0.94972099,0,0,0.94972099,0,3.3965498)"
   id="g165">
		<g
   id="g163">
			<defs
   id="defs144">
				<rect
   height="111.402"
   width="157.19701"
   y="-0.59799999"
   x="0"
   id="SVGID_1_" />
			</defs>
			<clipPath
   id="SVGID_2_">
				<use
   height="100%"
   width="100%"
   y="0"
   x="0"
   id="use146"
   style="overflow:visible"
   xlink:href="#SVGID_1_" />
			</clipPath>
			<g
   id="g161"
   clip-path="url(#SVGID_2_)"
   class="st1">
				<defs
   id="defs150">
					<rect
   height="111.402"
   width="157.19701"
   y="-0.59799999"
   x="0"
   id="SVGID_3_" />
				</defs>
				<clipPath
   id="SVGID_4_">
					<use
   height="100%"
   width="100%"
   y="0"
   x="0"
   id="use152"
   style="overflow:visible"
   xlink:href="#SVGID_3_" />
				</clipPath>
				<path
   id="path155"
   clip-path="url(#SVGID_4_)"
   d="m 0.607,75.285 c 2.957,-1.872 10.882,6.629 21.713,14.362 7.039,5.026 18.661,8.853 28.952,8.143 16.757,-1.156 23.71,-4.386 37.85,-11.763 11.088,-5.785 22.27,-13.948 31.82,-19.767 5.646,-3.441 12.449,-6.567 20.107,-8.932 9.948,-3.071 16.148,-0.501 16.148,0.494 0,1.708 -11.752,7.285 -20.688,13.323 -11.49,7.764 -16.879,11.531 -19.509,13.257 -7.518,4.935 -20.387,13.411 -25.948,16.092 -8.695,4.192 -18.633,8.229 -30.899,9.782 C 44.08,112.311 26.842,108.394 15.435,99.718 1.721,89.287 -1.548,76.65 0.607,75.285"
   class="st2" />
				<path
   id="path157"
   clip-path="url(#SVGID_4_)"
   d="m 23.112,84.347 c 0,0 12.419,-32.107 14.23,-36.798 5.747,-14.886 8.213,-22.798 17.158,-26.123 4.664,-1.734 13.022,-0.163 16.008,0.066 4.411,0.339 5.467,-0.955 6.464,-3.449 C 79.094,12.74 80.926,8.497 80.636,7.629 80.563,7.41 79.162,7.037 78.997,6.376 c -0.096,-0.386 2.626,-6.609 3.278,-6.963 0.676,-0.365 23.721,8.409 23.914,9.374 0.179,0.896 -1.929,6.653 -2.797,7.135 -0.678,0.377 -1.84,-0.767 -2.7,-0.289 -0.607,0.337 -1.472,2.853 -4.242,9.931 -0.868,2.218 -0.169,4.714 2.218,6.653 3.085,2.507 9.103,6.307 11.956,11.282 3.761,6.557 1.929,10.501 -3.568,24.202 l -0.385,1.061 c 0,0 -9.427,7.917 -26.617,16.06 -10.066,4.768 -19.451,7.009 -26.897,7.863 -1.202,0.138 -4.739,-2.688 -7.6,-2.967 C 42.7,89.438 34.906,90.587 34.248,90.356 28.789,88.433 23.112,84.347 23.112,84.347"
   class="st2" />
				<path
   id="path159"
   clip-path="url(#SVGID_4_)"
   d="m 74.562,38.485 c 0,0 -12.623,-6.709 -17.562,-2.973 -4.817,3.645 -22.751,54.866 -22.751,54.866 0,0 2.231,0.89 6.573,1.863 2.821,0.632 5.248,0.791 8.143,0.746 2.306,-0.036 4.192,-0.279 4.192,-0.279 z"
   class="st3" />
			</g>
		</g>
	</g>
<g
   id="g169">
</g>
<g
   id="g171">
</g>
<g
   id="g173">
</g>
<g
   id="g175">
</g>
<g
   id="g177">
</g>
<g
   id="g179">
</g>
<g
   id="g181">
</g>
<g
   id="g183">
</g>
<g
   id="g185">
</g>
<g
   id="g187">
</g>
<g
   id="g189">
</g>
<g
   id="g191">
</g>
<g
   id="g193">
</g>
<g
   id="g195">
</g>
<g
   id="g197">
</g>
<g
   transform="matrix(0.91776725,0,0,0.91776725,280.23913,56.914458)"
   id="g1058"><g
     transform="translate(41.509078,16.876377)"
     id="g1913"><g
       transform="matrix(1.114088,0,0,1.114088,-18.359141,-4.5256089)"
       id="g1014"><g
         id="g980"
         transform="translate(0,0.67926306)"><path
           id="path962"
           d="m 23.473108,3.8006804 a 6.8900955,6.8900955 0 0 0 -6.562311,1.404777 c 0,0 -3.946756,2.675764 -4.68259,13.7801896 0,0 -0.200682,1.873038 1.404777,2.14061 0,0 1.672353,0.33447 1.873035,-1.0703 0.200681,-1.40478 0.200681,-8.428662 3.277809,-12.0409486 a 2.361363,2.361363 0 0 1 1.137201,-0.802729 7.17774,7.17774 0 0 0 1.672359,-1.772693 5.445182,5.445182 0 0 1 1.87303,-1.605459"
           class="cls-1"
           style="fill:#5aa5e1;fill-opacity:1;stroke-width:0.66894" /><path
           id="path964"
           d="m 29.359795,3.5331034 a 6.910164,6.910164 0 0 0 -6.020476,1.471672 c 0,0 -3.679171,2.274401 -4.615691,11.3051076 a 18.66346,18.66346 0 0 0 -0.13379,3.344704 1.572012,1.572012 0 0 0 1.47167,1.40478 c 0,0 1.672354,0.13379 1.73925,-1.40478 l 0.13379,-2.14061 c 0,0 0.267571,-6.02047 2.67576,-9.0307096 l 0.60205,0.46826 a 11.19808,11.19808 0 0 1 4.147437,-5.418424 z"
           class="cls-1"
           style="fill:#5aa5e1;fill-opacity:1;stroke-width:0.66894" /><path
           id="path966"
           d="m 35.313368,3.5331034 a 7.358354,7.358354 0 0 0 -6.68941,2.140613 c 0,0 -2.80955,2.475081 -3.61228,8.6962366 0,0 -0.334471,3.344704 -0.40137,4.950164 a 1.732558,1.732558 0 0 0 1.47167,1.73925 1.572012,1.572012 0 0 0 1.672359,-1.47167 v -0.100341 c 0,0 0.133785,-7.559039 2.943341,-11.0375346 l 0.66894,0.401366 a 11.53255,11.53255 0 0 1 3.94675,-5.284637 z"
           class="cls-1"
           style="fill:#5aa5e1;fill-opacity:1;stroke-width:0.66894" /><path
           id="path968"
           d="m 39.728386,3.4662094 a 7.358354,7.358354 0 0 0 -6.221158,3.812967 c 0,0 -2.67576,3.8798606 -2.67576,11.7733646 0,0 -0.13379,1.873036 1.33788,2.073716 a 1.618838,1.618838 0 0 0 1.73925,-1.60546 v -0.26757 c 0,0 0.0669,-7.79317 3.07044,-10.9706396 0,0 2.67576,3.1440206 2.876444,10.6361686 0,0 0.0669,5.150844 1.070306,7.960401 a 36.04256,36.04256 0 0 0 1.00341,-7.55904 1.685732,1.685732 0 0 1 0.60205,-1.33788 c 0,0 0.46826,-0.200682 0.33447,-1.003411 0,0 -0.66894,-6.488732 -2.80955,-10.2348056 0,0 4.61569,-0.334471 5.485318,8.8969186 a 3.7995869,3.7995869 0 0 0 0.735832,2.207508 1.685732,1.685732 0 0 1 0.60205,1.33788 29.86154,29.86154 0 0 1 -0.26758,5.48532 4.943476,4.943476 0 0 0 0.33447,2.20751 17.961073,17.961073 0 0 0 0.869629,-6.221159 c 0,0 -0.133789,-2.475081 1.070301,-3.344701 0,0 -0.0669,-7.02389 -2.876445,-10.8368506 a 7.5523479,7.5523479 0 0 0 -6.288045,-3.010237 z"
           class="cls-1"
           style="fill:#5aa5e1;fill-opacity:1;stroke-width:0.66894" /><path
           id="path970"
           d="m 53.508578,35.107135 a 6.72286,6.72286 0 0 0 6.55562,-1.404778 c 0,0 3.946757,-2.675768 4.68259,-13.78019 0,0 0.20068,-1.87304 -1.404777,-2.140612 0,0 -1.672353,-0.334472 -1.873033,1.070302 -0.200682,1.40478 -0.200682,8.42866 -3.277812,12.040947 a 2.361363,2.361363 0 0 1 -1.1372,0.802729 7.17774,7.17774 0 0 0 -1.672358,1.806144 6.140881,6.140881 0 0 1 -1.87303,1.605458"
           class="cls-1"
           style="fill:#5aa5e1;fill-opacity:1;stroke-width:0.66894" /><path
           id="path972"
           d="m 47.554998,35.374707 a 6.910164,6.910164 0 0 0 6.02047,-1.47167 c 0,0 3.67918,-2.2744 4.615698,-11.30511 a 18.66346,18.66346 0 0 0 0.133785,-3.3447 1.518497,1.518497 0 0 0 -1.471673,-1.40478 c 0,0 -1.67235,-0.13379 -1.739242,1.40478 l -0.133788,2.14061 c 0,0 -0.26758,6.02047 -2.67577,9.03071 l -0.602044,-0.46826 a 10.70306,10.70306 0 0 1 -4.147436,5.41842 z"
           class="cls-1"
           style="fill:#5aa5e1;fill-opacity:1;stroke-width:0.66894" /><path
           id="path974"
           d="m 41.661627,35.374707 a 7.358354,7.358354 0 0 0 6.689411,-2.14061 c 0,0 2.80955,-2.47508 3.61228,-8.69624 0,0 0.33447,-3.3447 0.40137,-4.95016 a 1.732558,1.732558 0 0 0 -1.471671,-1.73925 1.572012,1.572012 0 0 0 -1.672359,1.47167 v 0.167239 c 0,0 -0.0669,7.559031 -2.94334,11.037531 l -0.66894,-0.40137 a 11.8804,11.8804 0 0 1 -3.946751,5.28464 z"
           class="cls-1"
           style="fill:#5aa5e1;fill-opacity:1;stroke-width:0.66894" /><path
           id="path976"
           d="m 37.186408,35.441607 a 7.358354,7.358354 0 0 0 6.22115,-3.81297 c 0,0 2.67577,-3.87986 2.67577,-11.773368 0,0 0.13379,-1.873032 -1.337883,-2.073714 a 1.618838,1.618838 0 0 0 -1.739247,1.605458 v 0.267574 c 0,0 -0.0669,7.826615 -3.07713,10.97064 0,0 -2.67577,-3.144025 -2.87645,-10.63617 0,0 -0.0669,-5.150847 -1.070306,-7.9604 a 36.04256,36.04256 0 0 0 -1.010104,7.55904 1.685732,1.685732 0 0 1 -0.602042,1.33788 c 0,0 -0.468258,0.20068 -0.334472,1.00341 0,0 0.668944,6.48873 2.809554,10.234803 0,0 -4.615698,0.334472 -5.48532,-8.896919 a 3.7995869,3.7995869 0 0 0 -0.735836,-2.207504 1.685732,1.685732 0 0 1 -0.602044,-1.337882 29.86154,29.86154 0 0 1 0.267572,-5.485318 6.100745,6.100745 0 0 0 -0.334472,-2.20751 16.44927,16.44927 0 0 0 -0.802729,6.221155 c 0,0 0.133789,2.475085 -1.070301,3.344705 0,0 0.133788,7.023886 2.876446,10.83685 a 7.4319386,7.4319386 0 0 0 6.221154,3.01024 z"
           class="cls-1"
           style="fill:#5aa5e1;fill-opacity:1;stroke-width:0.66894" /></g><g
         transform="translate(-3.3882053,6.3667566)"
         id="g2055"><g
           transform="translate(1.6343477,2.9980279)"
           id="g1078"><path
             style="fill:#000000;fill-opacity:1"
             class="cls-2"
             d="m 77.943161,12.255883 2.49,-7.5499996 a 2,2 0 0 1 2.6,-1.4 c 0.1,0 0.3,0.1 0.4,0.1 a 2.16,2.16 0 0 1 1,2.9 l -4.3,10.4999996 c -0.6,1.6 -1.7,2.2 -3.2,1.6 a 2.63,2.63 0 0 1 -1.5,-1.6 l -4.2,-10.5999996 a 2.1931712,2.1931712 0 0 1 4,-1.8 0.35,0.35 0 0 0 0.1,0.2 l 2.6,7.6999996 z"
             id="path978" /><path
             style="fill:#000000;fill-opacity:1"
             class="cls-2"
             d="m 85.843161,5.2558834 a 2,2 0 0 1 0.6,-1.5 2.08,2.08 0 0 1 3,0 v 0 a 2.2,2.2 0 0 1 0.6,1.5 V 16.455883 a 2.14,2.14 0 0 1 -2.1,2.2 v 0 a 2.22,2.22 0 0 1 -2.2,-2.2 V 5.2558834 Z m 0.4,-7.8 a 2.42,2.42 0 0 1 3.5,0 2.42,2.42 0 0 1 0,3.50000001 2.42,2.42 0 0 1 -3.5,0 2.14,2.14 0 0 1 -0.8,-1.7 2.5,2.5 0 0 1 0.8,-1.80000001 z"
             id="path980" /><path
             style="fill:#000000;fill-opacity:1"
             class="cls-2"
             d="m 100.54316,3.0558834 c 3.2,0.4 4.3,1.8 3.9,3.2 a 1.75,1.75 0 0 1 -1.8,1.5 h -0.4 l -0.2,-0.1 -0.4,-0.1 -0.3,-0.1 -0.4,-0.1 c -2.599999,-0.8 -4.699999,0.7 -4.699999,3.5999996 0,2.9 2.2,4.4 4.999999,3.4 l 0.5,-0.2 0.2,-0.1 a 1.83,1.83 0 0 1 2.4,0.9 0.9,0.9 0 0 1 0.1,0.5 c 0.2,1.1 -0.6,2.1 -2.6,2.7 a 4.15,4.15 0 0 1 -1.6,0.3 7.8230429,7.8230429 0 0 1 -1.199999,-15.5999996 4.42,4.42 0 0 0 1.499999,0.2 z"
             id="path982" /><path
             style="fill:#000000;fill-opacity:1"
             class="cls-2"
             d="M 107.74316,3.2558834 V 0.75588341 a 2.1,2.1 0 0 1 4.2,0 v 0 2.49999999 h 1.3 a 2,2 0 0 1 1.4,0.6 1.82,1.82 0 0 1 0,2.7 v 0 a 2,2 0 0 1 -1.4,0.6 h -1.3 v 9.2999996 a 2,2 0 0 1 -0.6,1.5 2.17,2.17 0 0 1 -3,0 v 0 a 2.2,2.2 0 0 1 -0.6,-1.5 V 7.1558834 h -0.8 a 2.39,2.39 0 0 1 -1.4,-0.5 1.88,1.88 0 0 1 -0.1,-2.6 l 0.1,-0.1 a 2,2 0 0 1 1.4,-0.6 z"
             id="path984" /><path
             style="fill:#000000;fill-opacity:1"
             class="cls-2"
             d="m 116.04316,5.1558834 a 2.2,2.2 0 0 1 2.2,-2.1 c 1.3,-0.1 2.2,0.7 2.1,1.5 v 0.2 c 0.1,-0.1 0.2,-0.3 0.4,-0.4 1.6,-1.8 3.5,-1.8 4.4,-0.5 a 1.88,1.88 0 0 1 -0.3,2.6 c -0.1,0.1 -0.3,0.2 -0.4,0.3 l -0.2,0.1 -0.6,0.2 a 7.54,7.54 0 0 0 -1.3,0.6 c -1.4,0.8 -1.8,1.5 -1.8,2.2 v 6.3999996 a 2.22,2.22 0 0 1 -2.2,2.2 v 0 a 2.05,2.05 0 0 1 -2.1,-2.1 v 0 z"
             id="path986" /><path
             style="fill:#000000;fill-opacity:1"
             class="cls-2"
             d="m 126.34316,6.7058834 a 7.44,7.44 0 0 1 6.3,-3.7 8,8 0 0 1 8.3,7.3999996 7.8628875,7.8628875 0 1 1 -15.7,0.9 v -0.4 a 8.77,8.77 0 0 1 1.1,-4.1999996 z m 3.3,4.7999996 c 0.4,2.6 1.9,3.7 3.7,3.3 1.2,-0.2 2.2,-1.4 2.4,-3.3 a 3.3,3.3 0 0 0 0,-1.4 3.32,3.32 0 0 0 -2.4,-3.1999996 c -1.8,-0.4 -3.4,0.7 -3.7,3.1999996 z"
             id="path988" /><path
             style="fill:#000000;fill-opacity:1"
             class="cls-2"
             d="m 141.94316,5.2558834 a 2.37,2.37 0 0 1 2.2,-2.2 1.61,1.61 0 0 1 1.9,1.2 v 0.45 a 4.69,4.69 0 0 1 2.9,-1.6 7.39,7.39 0 0 1 2.1,0 5,5 0 0 1 4.6,5.4 v 0 7.9999996 a 2.16,2.16 0 0 1 -4.3,0.3 V 9.2058834 a 2.5,2.5 0 0 0 -0.8,-1.8 2.42,2.42 0 0 0 -3.5,0 v 0 a 2.41,2.41 0 0 0 -0.7,1.8 v 7.2999996 a 2.16,2.16 0 0 1 -4.3,0 V 5.2558834 Z"
             id="path990" /><path
             style="fill:#000000;fill-opacity:1"
             class="cls-2"
             d="m 169.64316,12.155883 a 3.48,3.48 0 0 0 0.7,1.5 c 1.1,1.4 3.2,1.7 5.6,0.5 1.4,-0.8 1.8,-0.8 2.5,-0.5 a 1.59,1.59 0 0 1 0.9,0.9 c 0.6,1.5 -1.3,4.1 -6.5,4.1 a 7.69,7.69 0 0 1 -8,-7.3 9.86,9.86 0 0 1 0.3,-2.3999996 7.36,7.36 0 0 1 5.9,-5.8 7.27,7.27 0 0 1 8,4.3 7.06,7.06 0 0 1 0.6,2.4 c 0.2,1.6999996 -0.4,2.3999996 -1.8,2.3999996 z m 5.9,-2.6999996 a 0.37,0.37 0 0 0 -0.1,-0.3 c -0.4,-2 -1.9,-3 -3.5,-2.6 a 3.25,3.25 0 0 0 -2.3,2.5 v 0.3 h 5.9 z"
             id="path992" /><path
             style="fill:#000000;fill-opacity:1"
             class="cls-2"
             d="m 181.34316,5.2558834 a 2.36,2.36 0 0 1 2.1,-2.2 1.61,1.61 0 0 1 1.9,1.2 v 0.45 a 4.69,4.69 0 0 1 2.9,-1.6 7.39,7.39 0 0 1 2.1,0 5,5 0 0 1 4.6,5.4 v 0 7.9999996 a 2.16,2.16 0 0 1 -4.3,0.3 V 9.2058834 a 2.5,2.5 0 0 0 -0.8,-1.8 2.42,2.42 0 0 0 -3.5,0 v 0 a 2.41,2.41 0 0 0 -0.7,1.8 v 7.2999996 a 2.16,2.16 0 0 1 -4.3,0 z"
             id="path994" /><path
             style="fill:#000000;fill-opacity:1"
             class="cls-2"
             d="m 201.54316,12.155883 a 3.48,3.48 0 0 0 0.7,1.5 c 1.1,1.4 3.2,1.7 5.6,0.5 1.4,-0.8 1.8,-0.8 2.5,-0.5 a 1.59,1.59 0 0 1 0.9,0.9 c 0.6,1.5 -1.3,4.1 -6.5,4.1 a 7.69,7.69 0 0 1 -8,-7.3 9.86,9.86 0 0 1 0.3,-2.3999996 7.36,7.36 0 0 1 5.9,-5.8 7.27,7.27 0 0 1 8,4.3 7.06,7.06 0 0 1 0.6,2.4 c 0.2,1.6999996 -0.4,2.3999996 -1.8,2.3999996 z m 5.9,-2.6999996 a 0.37,0.37 0 0 0 -0.1,-0.3 c -0.5,-2 -1.9,-3 -3.5,-2.6 a 3.25,3.25 0 0 0 -2.3,2.5 0.37,0.37 0 0 1 -0.1,0.3 h 6 z"
             id="path996" /><path
             style="fill:#000000;fill-opacity:1"
             class="cls-2"
             d="m 213.24316,5.1558834 a 2.2,2.2 0 0 1 2.2,-2.1 c 1.3,-0.1 2.2,0.7 2.1,1.5 v 0.2 c 0.1,-0.1 0.2,-0.3 0.4,-0.4 1.7,-1.8 3.5,-1.8 4.4,-0.5 a 1.88,1.88 0 0 1 -0.3,2.6 2.19,2.19 0 0 1 -0.5,0.3 l -0.2,0.1 -0.6,0.2 a 7.54,7.54 0 0 0 -1.3,0.6 c -1.4,0.8 -1.8,1.5 -1.8,2.2 v 6.3999996 a 2.2,2.2 0 0 1 -4.4,0 z"
             id="path998" /><path
             style="fill:#000000;fill-opacity:1"
             class="cls-2"
             d="m 233.04316,4.5558834 a 1.67,1.67 0 0 1 1.8,-1.5 h 0.2 a 2.37,2.37 0 0 1 2.2,2.2 V 16.455883 c 0,5.6 -3.3,8.6 -9.1,8 a 9,9 0 0 1 -3.2,-0.9 c -2.1,-1 -2.4,-2.4 -1.4,-3.5 a 2.05,2.05 0 0 1 2.2,-0.5 v 0 l 0.9,0.4 a 1.42,1.42 0 0 0 0.6,0.2 c 3.7,1.3 5.8,-0.2 5.8,-3 v -0.6 c -1.6,2.3 -5.5,2.7 -8.3,0 a 8.41,8.41 0 0 1 -2,-7.6999996 7.91,7.91 0 0 1 1.1,-2.9 c 2.4,-3.8 7.2,-4.2 9.4,-1.5 z m -5.4,9.1999996 a 2.85,2.85 0 0 0 4,0.4 c 0.2,-0.2 0.4,-0.3 0.5,-0.5 a 5,5 0 0 0 0.8,-2.7 c 0,-1.8999996 -0.7,-3.0999996 -1.8,-3.6999996 -1.9,-0.9 -4,0.3 -4.3,2.8999996 0,0.3 -0.1,0.5 -0.1,0.8 a 4.68,4.68 0 0 0 0.9,2.8 z"
             id="path1000" /><path
             style="fill:#000000;fill-opacity:1"
             class="cls-2"
             d="m 239.54316,3.2558834 a 2.06,2.06 0 0 1 2.8,1.1 c 0,0.1 0.1,0.2 0.1,0.3 l 2.7,7.1999996 2.7,-7.1999996 a 2.14,2.14 0 0 1 4.2,0.8 1.42,1.42 0 0 1 -0.2,0.6 l -7,17.0999996 a 2.2,2.2 0 0 1 -2.7,1.6 c -0.1,0 -0.2,-0.1 -0.3,-0.1 a 2.18,2.18 0 0 1 -1.2,-2.8 v -0.1 l 2,-4.6 -4.6,-11.1999996 a 2.7,2.7 0 0 1 1.5,-2.7 z"
             id="path1002" /></g></g></g></g></g><g
   transform="translate(13.618831,-4.6421384)"
   style="font-style:normal;font-variant:normal;font-weight:bold;font-stretch:normal;font-size:21.3333px;line-height:1.25;font-family:sans-serif;-inkscape-font-specification:'sans-serif Bold';fill:#f65600;fill-opacity:0.494596;stroke:none;stroke-width:0.711044"
   id="text1917"
   aria-label="Powered by"><g
     transform="translate(-3.7976667,12.887623)"
     id="g1063"><path
       d="m 159.39133,76.969922 h 6.65624 q 2.44791,0 3.82291,1.124998 1.38542,1.114581 1.38542,3.104162 0,1.218748 -0.45834,2.322913 -0.45833,1.093748 -1.31249,1.916663 -0.92709,0.885415 -2.20833,1.291665 -1.28125,0.395832 -3.21875,0.395832 h -2.64583 l -1.04166,5.395825 h -4.01041 z m 3.45833,2.906245 -0.85417,4.343743 h 2.21875 q 1.41667,0 2.16666,-0.666666 0.75,-0.666665 0.75,-1.937496 0,-0.843749 -0.54166,-1.291665 -0.53125,-0.447916 -1.54167,-0.447916 z"
       style="font-style:oblique;font-variant:normal;font-weight:bold;font-stretch:normal;font-size:21.3333px;font-family:'DejaVu Sans';-inkscape-font-specification:'DejaVu Sans Bold Oblique';fill:#3e3d3c;fill-opacity:0.616899;stroke-width:0.711044"
       id="path1016" /><path
       d="m 179.53713,83.240745 q -1.44791,0 -2.38541,1.312498 -0.9375,1.312498 -0.9375,3.343745 0,1.104165 0.5,1.687497 0.51042,0.572916 1.47917,0.572916 1.44791,0 2.38541,-1.312498 0.9375,-1.322915 0.9375,-3.364578 0,-1.093749 -0.51042,-1.666664 -0.5,-0.572916 -1.46875,-0.572916 z m 0.30209,-2.666663 q 2.60416,0 4.09374,1.322915 1.48958,1.322915 1.48958,3.604161 0,1.322915 -0.46875,2.572913 -0.46875,1.239581 -1.36458,2.270829 -1.0625,1.229165 -2.51041,1.854164 -1.44792,0.624999 -3.22916,0.624999 -2.57292,0 -4.0625,-1.322914 -1.47916,-1.322915 -1.47916,-3.604161 0,-1.312498 0.47916,-2.562496 0.47917,-1.260415 1.375,-2.30208 1.04167,-1.208331 2.47916,-1.83333 1.44792,-0.625 3.19792,-0.625 z"
       style="font-style:oblique;font-variant:normal;font-weight:bold;font-stretch:normal;font-size:21.3333px;font-family:'DejaVu Sans';-inkscape-font-specification:'DejaVu Sans Bold Oblique';fill:#3e3d3c;fill-opacity:0.616899;stroke-width:0.711044"
       id="path1018" /><path
       d="m 188.05795,80.855332 h 3.4375 l 0.40625,8.020821 3.52082,-8.020821 h 2.95833 l 0.42709,7.999987 3.49999,-7.999987 h 3.66666 l -5.33332,11.666648 h -3.95833 l -0.38542,-8.02082 -3.56249,8.02082 h -3.86458 z"
       style="font-style:oblique;font-variant:normal;font-weight:bold;font-stretch:normal;font-size:21.3333px;font-family:'DejaVu Sans';-inkscape-font-specification:'DejaVu Sans Bold Oblique';fill:#3e3d3c;fill-opacity:0.616899;stroke-width:0.711044"
       id="path1021" /><path
       d="m 219.32874,87.126155 -0.125,0.59375 h -8.72916 q 0,0.0625 -0.0104,0.187499 -0.0104,0.114583 -0.0104,0.177083 0,1.135415 0.67708,1.697914 0.6875,0.562499 2.05208,0.562499 1.17708,0 2.47916,-0.354166 1.3125,-0.354166 2.75,-1.052081 l -0.57292,2.895828 q -1.36458,0.5 -2.71874,0.739583 -1.34375,0.249999 -2.73958,0.249999 -2.72916,0 -4.21874,-1.260415 -1.47917,-1.260414 -1.47917,-3.562494 0,-1.333331 0.46875,-2.583329 0.47917,-1.260415 1.38542,-2.30208 1.07291,-1.249998 2.56249,-1.89583 1.5,-0.645833 3.32291,-0.645833 2.36458,0 3.75,1.260415 1.39583,1.260415 1.39583,3.395828 0,0.416666 -0.0625,0.885415 -0.0521,0.458333 -0.17708,1.010415 z m -3.52083,-1.70833 q 0.0312,-0.135417 0.0417,-0.270833 0.0208,-0.145833 0.0208,-0.28125 0,-0.833332 -0.5,-1.322914 -0.5,-0.489583 -1.35417,-0.489583 -1.09374,0 -1.86458,0.604166 -0.76041,0.593749 -1.16666,1.760414 z"
       style="font-style:oblique;font-variant:normal;font-weight:bold;font-stretch:normal;font-size:21.3333px;font-family:'DejaVu Sans';-inkscape-font-specification:'DejaVu Sans Bold Oblique';fill:#3e3d3c;fill-opacity:0.616899;stroke-width:0.711044"
       id="path1023" /><path
       d="m 231.33913,84.03241 q -0.38541,-0.218749 -0.85416,-0.333332 -0.46875,-0.114584 -1.01042,-0.114584 -1.42708,0 -2.37499,0.916666 -0.9375,0.916665 -1.27084,2.645829 l -1.06249,5.374991 h -3.73958 l 2.27083,-11.666648 h 3.74999 l -0.40625,1.999997 q 0.73959,-1.104165 1.84375,-1.687497 1.11458,-0.59375 2.46875,-0.59375 0.19791,0 0.44791,0.02083 0.25,0.02083 0.59375,0.0625 z"
       style="font-style:oblique;font-variant:normal;font-weight:bold;font-stretch:normal;font-size:21.3333px;font-family:'DejaVu Sans';-inkscape-font-specification:'DejaVu Sans Bold Oblique';fill:#3e3d3c;fill-opacity:0.616899;stroke-width:0.711044"
       id="path1025" /><path
       d="m 244.32869,87.126155 -0.125,0.59375 h -8.72915 q 0,0.0625 -0.0104,0.187499 -0.0104,0.114583 -0.0104,0.177083 0,1.135415 0.67708,1.697914 0.6875,0.562499 2.05208,0.562499 1.17708,0 2.47916,-0.354166 1.3125,-0.354166 2.75,-1.052081 l -0.57292,2.895828 q -1.36458,0.5 -2.71874,0.739583 -1.34375,0.249999 -2.73958,0.249999 -2.72916,0 -4.21875,-1.260415 -1.47916,-1.260414 -1.47916,-3.562494 0,-1.333331 0.46875,-2.583329 0.47917,-1.260415 1.38541,-2.30208 1.07292,-1.249998 2.5625,-1.89583 1.5,-0.645833 3.32291,-0.645833 2.36458,0 3.75,1.260415 1.39583,1.260415 1.39583,3.395828 0,0.416666 -0.0625,0.885415 -0.0521,0.458333 -0.17709,1.010415 z m -3.52082,-1.70833 q 0.0312,-0.135417 0.0417,-0.270833 0.0208,-0.145833 0.0208,-0.28125 0,-0.833332 -0.5,-1.322914 -0.5,-0.489583 -1.35417,-0.489583 -1.09375,0 -1.86458,0.604166 -0.76041,0.593749 -1.16666,1.760414 z"
       style="font-style:oblique;font-variant:normal;font-weight:bold;font-stretch:normal;font-size:21.3333px;font-family:'DejaVu Sans';-inkscape-font-specification:'DejaVu Sans Bold Oblique';fill:#3e3d3c;fill-opacity:0.616899;stroke-width:0.711044"
       id="path1027" /><path
       d="m 251.92243,90.115734 q 1.4375,0 2.33333,-1.322914 0.90625,-1.322915 0.90625,-3.458328 0,-0.968749 -0.51041,-1.510415 -0.5,-0.541665 -1.40625,-0.541665 -1.41667,0 -2.33333,1.312497 -0.91667,1.302082 -0.91667,3.343745 0,1.062499 0.48959,1.624998 0.5,0.552082 1.43749,0.552082 z m 3.92708,-7.552071 1.20833,-6.24999 h 3.76041 l -3.15624,16.208307 h -3.76041 l 0.34375,-1.687497 q -0.85417,1.020832 -1.79167,1.510414 -0.9375,0.479166 -2.05208,0.479166 -1.96874,0 -3.11458,-1.249998 -1.14583,-1.249998 -1.14583,-3.406245 0,-1.343747 0.39584,-2.614579 0.40625,-1.270831 1.15624,-2.312496 0.94792,-1.312498 2.13542,-1.98958 1.19791,-0.677083 2.56249,-0.677083 1.19792,0 2.03125,0.489583 0.84375,0.479166 1.42708,1.499998 z"
       style="font-style:oblique;font-variant:normal;font-weight:bold;font-stretch:normal;font-size:21.3333px;font-family:'DejaVu Sans';-inkscape-font-specification:'DejaVu Sans Bold Oblique';fill:#3e3d3c;fill-opacity:0.616899;stroke-width:0.711044"
       id="path1029" /><path
       d="m 276.7349,83.282412 q -1.4375,0 -2.35417,1.333331 -0.90625,1.322914 -0.90625,3.447911 0,0.958332 0.51042,1.510414 0.52083,0.541666 1.4375,0.541666 1.40625,0 2.32291,-1.302081 0.91667,-1.312498 0.91667,-3.354162 0,-1.062498 -0.5,-1.61458 -0.48959,-0.562499 -1.42708,-0.562499 z m -3.91667,7.552071 -0.34374,1.687497 h -3.73958 l 3.14583,-16.208307 h 3.74999 l -1.21875,6.24999 q 0.85417,-1.020832 1.79167,-1.499998 0.93749,-0.489583 2.05208,-0.489583 1.96874,0 3.11457,1.249999 1.14584,1.249998 1.14584,3.406244 0,1.343748 -0.40625,2.614579 -0.39584,1.270832 -1.14583,2.312497 -0.94792,1.312498 -2.14583,1.98958 -1.1875,0.677082 -2.55208,0.677082 -1.19792,0 -2.04167,-0.479166 -0.83333,-0.489582 -1.40625,-1.510414 z"
       style="font-style:oblique;font-variant:normal;font-weight:bold;font-stretch:normal;font-size:21.3333px;font-family:'DejaVu Sans';-inkscape-font-specification:'DejaVu Sans Bold Oblique';fill:#3e3d3c;fill-opacity:0.616899;stroke-width:0.711044"
       id="path1031" /><path
       d="m 284.77655,80.855332 h 3.52083 l 1.60416,8.083321 4.13541,-8.083321 h 3.98958 l -7.38541,12.770813 q -1.23958,2.156247 -2.29166,2.822912 -1.05208,0.677083 -2.71875,0.677083 h -2.26041 l 0.38542,-2.447913 h 1.17708 q 0.91666,0 1.41666,-0.3125 0.51042,-0.302082 0.90625,-1.072915 l 0.34375,-0.624999 z"
       style="font-style:oblique;font-variant:normal;font-weight:bold;font-stretch:normal;font-size:21.3333px;font-family:'DejaVu Sans';-inkscape-font-specification:'DejaVu Sans Bold Oblique';fill:#3e3d3c;fill-opacity:0.616899;stroke-width:0.711044"
       id="path1033" /></g></g></svg>
